<svg width="237" height="65" viewBox="0 0 237 65" fill="none" xmlns="http://www.w3.org/2000/svg">
<g filter="url(#filter0_d)">
<rect x="4" width="229" height="56.3692" rx="4" fill="white"/>
<rect x="4.5" y="0.5" width="228" height="55.3692" rx="3.5" stroke="#008737"/>
</g>
<path d="M86.0274 41.8C85.7074 41.8 85.4274 41.7733 85.1874 41.72C84.9474 41.68 84.7341 41.62 84.5474 41.54V40.02C84.7608 40.0733 84.9874 40.12 85.2274 40.16C85.4674 40.2 85.7208 40.22 85.9874 40.22C86.3208 40.22 86.6341 40.1533 86.9274 40.02C87.2341 39.8867 87.4808 39.6533 87.6674 39.32C87.8541 38.9867 87.9474 38.52 87.9474 37.92V23.72H89.7474V37.78C89.7474 39.1533 89.4074 40.1667 88.7274 40.82C88.0474 41.4733 87.1474 41.8 86.0274 41.8ZM102.596 32.62C102.596 34.3933 102.143 35.7667 101.236 36.74C100.343 37.7133 99.1295 38.2 97.5962 38.2C96.6495 38.2 95.8028 37.9867 95.0562 37.56C94.3228 37.12 93.7428 36.4867 93.3162 35.66C92.8895 34.82 92.6762 33.8067 92.6762 32.62C92.6762 30.8467 93.1228 29.48 94.0162 28.52C94.9095 27.56 96.1228 27.08 97.6562 27.08C98.6295 27.08 99.4828 27.3 100.216 27.74C100.963 28.1667 101.543 28.7933 101.956 29.62C102.383 30.4333 102.596 31.4333 102.596 32.62ZM94.4962 32.62C94.4962 33.8867 94.7428 34.8933 95.2362 35.64C95.7428 36.3733 96.5428 36.74 97.6362 36.74C98.7162 36.74 99.5095 36.3733 100.016 35.64C100.523 34.8933 100.776 33.8867 100.776 32.62C100.776 31.3533 100.523 30.36 100.016 29.64C99.5095 28.92 98.7095 28.56 97.6162 28.56C96.5228 28.56 95.7295 28.92 95.2362 29.64C94.7428 30.36 94.4962 31.3533 94.4962 32.62ZM106.286 23.26C106.552 23.26 106.786 23.3533 106.986 23.54C107.199 23.7133 107.306 23.9933 107.306 24.38C107.306 24.7533 107.199 25.0333 106.986 25.22C106.786 25.4067 106.552 25.5 106.286 25.5C105.992 25.5 105.746 25.4067 105.546 25.22C105.346 25.0333 105.246 24.7533 105.246 24.38C105.246 23.9933 105.346 23.7133 105.546 23.54C105.746 23.3533 105.992 23.26 106.286 23.26ZM107.146 27.28V38H105.386V27.28H107.146ZM115.702 27.08C116.982 27.08 117.948 27.3933 118.602 28.02C119.255 28.6333 119.582 29.6333 119.582 31.02V38H117.842V31.14C117.842 29.42 117.042 28.56 115.442 28.56C114.255 28.56 113.435 28.8933 112.982 29.56C112.528 30.2267 112.302 31.1867 112.302 32.44V38H110.542V27.28H111.962L112.222 28.74H112.322C112.668 28.18 113.148 27.7667 113.762 27.5C114.375 27.22 115.022 27.08 115.702 27.08ZM139.493 23.72V32.96C139.493 33.9467 139.293 34.84 138.893 35.64C138.493 36.4267 137.88 37.0533 137.053 37.52C136.24 37.9733 135.2 38.2 133.933 38.2C132.16 38.2 130.807 37.72 129.873 36.76C128.953 35.7867 128.493 34.5067 128.493 32.92V23.72H130.293V32.98C130.293 34.14 130.6 35.04 131.213 35.68C131.84 36.32 132.78 36.64 134.033 36.64C135.327 36.64 136.26 36.3 136.833 35.62C137.42 34.9267 137.713 34.04 137.713 32.96V23.72H139.493ZM150.002 35.04C150.002 36.08 149.616 36.8667 148.842 37.4C148.069 37.9333 147.029 38.2 145.722 38.2C144.976 38.2 144.329 38.14 143.782 38.02C143.249 37.9 142.776 37.7333 142.362 37.52V35.92C142.789 36.1333 143.302 36.3333 143.902 36.52C144.516 36.6933 145.136 36.78 145.762 36.78C146.656 36.78 147.302 36.64 147.702 36.36C148.102 36.0667 148.302 35.68 148.302 35.2C148.302 34.9333 148.229 34.6933 148.082 34.48C147.936 34.2667 147.669 34.0533 147.282 33.84C146.909 33.6267 146.369 33.3867 145.662 33.12C144.969 32.8533 144.376 32.5867 143.882 32.32C143.389 32.0533 143.009 31.7333 142.742 31.36C142.476 30.9867 142.342 30.5067 142.342 29.92C142.342 29.0133 142.709 28.3133 143.442 27.82C144.189 27.3267 145.162 27.08 146.362 27.08C147.016 27.08 147.622 27.1467 148.182 27.28C148.756 27.4 149.289 27.5733 149.782 27.8L149.182 29.2C148.729 29.0133 148.256 28.8533 147.762 28.72C147.269 28.5867 146.762 28.52 146.242 28.52C145.522 28.52 144.969 28.64 144.582 28.88C144.209 29.1067 144.022 29.42 144.022 29.82C144.022 30.1133 144.109 30.3667 144.282 30.58C144.456 30.78 144.742 30.98 145.142 31.18C145.556 31.3667 146.102 31.5933 146.782 31.86C147.462 32.1133 148.042 32.3733 148.522 32.64C149.002 32.9067 149.369 33.2333 149.622 33.62C149.876 33.9933 150.002 34.4667 150.002 35.04Z" fill="#008737"/>
<defs>
<filter id="filter0_d" x="0" y="0" width="237" height="64.3692" filterUnits="userSpaceOnUse" color-interpolation-filters="sRGB">
<feFlood flood-opacity="0" result="BackgroundImageFix"/>
<feColorMatrix in="SourceAlpha" type="matrix" values="0 0 0 0 0 0 0 0 0 0 0 0 0 0 0 0 0 0 127 0"/>
<feOffset dy="4"/>
<feGaussianBlur stdDeviation="2"/>
<feColorMatrix type="matrix" values="0 0 0 0 0 0 0 0 0 0 0 0 0 0 0 0 0 0 0.25 0"/>
<feBlend mode="normal" in2="BackgroundImageFix" result="effect1_dropShadow"/>
<feBlend mode="normal" in="SourceGraphic" in2="effect1_dropShadow" result="shape"/>
</filter>
</defs>
</svg>
